<svg xmlns="http://www.w3.org/2000/svg" width="980" height="620" viewBox="0 0 980 620" role="img" aria-labelledby="title desc">
  <title id="title">实测结果对比</title>
  <desc id="desc">分组柱状图，对比 Single Prompt 与 Workflow-Guided 在 TPR、RP@k、CPR、RFR、NRR 上的 workflow-lift Claude Code 研究分数。</desc>
  <style>
    .bg { fill: #ffffff; }
    .title { font: 700 30px -apple-system,BlinkMacSystemFont,Segoe UI,Helvetica,Arial,sans-serif; fill: #111827; }
    .subtitle { font: 500 14px -apple-system,BlinkMacSystemFont,Segoe UI,Helvetica,Arial,sans-serif; fill: #6b7280; }
    .label { font: 500 16px -apple-system,BlinkMacSystemFont,Segoe UI,Helvetica,Arial,sans-serif; fill: #374151; }
    .tick { font: 500 14px -apple-system,BlinkMacSystemFont,Segoe UI,Helvetica,Arial,sans-serif; fill: #6b7280; }
    .axis { stroke: #374151; stroke-width: 2; }
    .grid { stroke: #e5e7eb; stroke-width: 1; }
    .legend { font: 600 15px -apple-system,BlinkMacSystemFont,Segoe UI,Helvetica,Arial,sans-serif; fill: #1f2937; }
    .value { font: 600 13px -apple-system,BlinkMacSystemFont,Segoe UI,Helvetica,Arial,sans-serif; fill: #111827; }
  </style>
  <rect class="bg" width="980" height="620"/>

  <text class="title" x="490" y="44" text-anchor="middle">实测结果对比</text>
  <text class="subtitle" x="490" y="64" text-anchor="middle">Workflow-lift suite 20260529，探索性结果</text>

  <rect x="300" y="78" width="18" height="18" fill="#4f83c2"/>
  <text class="legend" x="326" y="92">Single Prompt</text>
  <rect x="500" y="78" width="18" height="18" fill="#f59e0b"/>
  <text class="legend" x="526" y="92">Workflow-Guided</text>

  <line class="axis" x1="90" y1="540" x2="920" y2="540"/>
  <line class="axis" x1="90" y1="130" x2="90" y2="540"/>

  <line class="grid" x1="90" y1="540" x2="920" y2="540"/>
  <line class="grid" x1="90" y1="499" x2="920" y2="499"/>
  <line class="grid" x1="90" y1="458" x2="920" y2="458"/>
  <line class="grid" x1="90" y1="417" x2="920" y2="417"/>
  <line class="grid" x1="90" y1="376" x2="920" y2="376"/>
  <line class="grid" x1="90" y1="335" x2="920" y2="335"/>
  <line class="grid" x1="90" y1="294" x2="920" y2="294"/>
  <line class="grid" x1="90" y1="253" x2="920" y2="253"/>
  <line class="grid" x1="90" y1="212" x2="920" y2="212"/>
  <line class="grid" x1="90" y1="171" x2="920" y2="171"/>
  <line class="grid" x1="90" y1="130" x2="920" y2="130"/>

  <text class="tick" x="74" y="544" text-anchor="end">0</text>
  <text class="tick" x="74" y="503" text-anchor="end">1</text>
  <text class="tick" x="74" y="462" text-anchor="end">2</text>
  <text class="tick" x="74" y="421" text-anchor="end">3</text>
  <text class="tick" x="74" y="380" text-anchor="end">4</text>
  <text class="tick" x="74" y="339" text-anchor="end">5</text>
  <text class="tick" x="74" y="298" text-anchor="end">6</text>
  <text class="tick" x="74" y="257" text-anchor="end">7</text>
  <text class="tick" x="74" y="216" text-anchor="end">8</text>
  <text class="tick" x="74" y="175" text-anchor="end">9</text>
  <text class="tick" x="74" y="134" text-anchor="end">10</text>

  <text class="label" transform="translate(28 335) rotate(-90)" text-anchor="middle">分数</text>

  <rect x="130" y="253" width="40" height="287" fill="#4f83c2"/>
  <rect x="176" y="130" width="40" height="410" fill="#f59e0b"/>
  <text class="value" x="150" y="247" text-anchor="middle">7</text>
  <text class="value" x="196" y="124" text-anchor="middle">10</text>
  <text class="label" x="173" y="570" text-anchor="middle">TPR</text>

  <rect x="290" y="335" width="40" height="205" fill="#4f83c2"/>
  <rect x="336" y="130" width="40" height="410" fill="#f59e0b"/>
  <text class="value" x="310" y="329" text-anchor="middle">5</text>
  <text class="value" x="356" y="124" text-anchor="middle">10</text>
  <text class="label" x="333" y="570" text-anchor="middle">RP@k</text>

  <rect x="450" y="253" width="40" height="287" fill="#4f83c2"/>
  <rect x="496" y="130" width="40" height="410" fill="#f59e0b"/>
  <text class="value" x="470" y="247" text-anchor="middle">7</text>
  <text class="value" x="516" y="124" text-anchor="middle">10</text>
  <text class="label" x="493" y="570" text-anchor="middle">CPR</text>

  <rect x="610" y="253" width="40" height="287" fill="#4f83c2"/>
  <rect x="656" y="130" width="40" height="410" fill="#f59e0b"/>
  <text class="value" x="630" y="247" text-anchor="middle">7</text>
  <text class="value" x="676" y="124" text-anchor="middle">10</text>
  <text class="label" x="653" y="570" text-anchor="middle">RFR</text>

  <rect x="770" y="253" width="40" height="287" fill="#4f83c2"/>
  <rect x="816" y="130" width="40" height="410" fill="#f59e0b"/>
  <text class="value" x="790" y="247" text-anchor="middle">7</text>
  <text class="value" x="836" y="124" text-anchor="middle">10</text>
  <text class="label" x="813" y="570" text-anchor="middle">NRR</text>

</svg>
